<svg width="14" height="14" viewBox="0 0 14 14" fill="none" xmlns="http://www.w3.org/2000/svg">
<path fill-rule="evenodd" clip-rule="evenodd" d="M13.2524 12.4338L13.032 11.9136C12.5612 12.3261 11.9904 12.6271 11.3611 12.7748L11.7654 13.301C11.9285 13.5132 12.1857 13.6399 12.4534 13.6399C12.7453 13.6399 13.0157 13.4947 13.1768 13.2514C13.3379 13.0081 13.3662 12.7025 13.2524 12.4338Z" fill="black"/>
<path fill-rule="evenodd" clip-rule="evenodd" d="M0.968083 11.9136L0.747693 12.4338C0.633888 12.7026 0.662134 13.0082 0.823271 13.2514C0.984408 13.4946 1.25484 13.6399 1.54665 13.6399C1.81435 13.6399 2.07151 13.5132 2.2347 13.3009L2.63901 12.7747C2.00969 12.6271 1.43886 12.3261 0.968083 11.9136Z" fill="black"/>
<path fill-rule="evenodd" clip-rule="evenodd" d="M5.00678 1.46779H4.96196C4.85125 0.640391 4.14124 0 3.28404 0H2.90632C1.97258 0 1.21289 0.759664 1.21289 1.69343V5.24038H2.0352V1.6934C2.0352 1.21308 2.426 0.822281 2.90632 0.822281H3.28404C3.68635 0.822281 4.02566 1.09648 4.12536 1.46776H4.05894C3.40482 1.46776 2.87266 1.99992 2.87266 2.65404V3.34764C2.87266 3.56754 3.04544 3.74659 3.26258 3.75771C3.26966 3.75807 3.27663 3.75878 3.2838 3.75878H5.78189C6.00896 3.75878 6.19304 3.5747 6.19304 3.34764V2.65407C6.19306 1.99995 5.6609 1.46779 5.00678 1.46779Z" fill="black"/>
<path fill-rule="evenodd" clip-rule="evenodd" d="M0.46167 8.46753V8.9893C0.46167 10.6797 1.8369 12.055 3.52731 12.055H10.4729C12.1633 12.055 13.5385 10.6797 13.5385 8.9893V8.46753H0.46167Z" fill="black"/>
<mask id="mask0_0_969" style="mask-type:alpha" maskUnits="userSpaceOnUse" x="0" y="6" width="14" height="2">
<path fill-rule="evenodd" clip-rule="evenodd" d="M0 6.4563H14V7.63924H0V6.4563Z" fill="white"/>
</mask>
<g mask="url(#mask0_0_969)">
<path fill-rule="evenodd" clip-rule="evenodd" d="M13.4086 6.4563H0.591445C0.265316 6.45633 0 6.72167 0 7.0478C0 7.37393 0.265316 7.63924 0.591445 7.63924H13.4086C13.7347 7.63924 14 7.37393 14 7.0478C14 6.72167 13.7347 6.4563 13.4086 6.4563Z" fill="black"/>
</g>
</svg>
