<svg width="36" height="41" viewBox="0 0 36 41" fill="none" xmlns="http://www.w3.org/2000/svg">
<path fill-rule="evenodd" clip-rule="evenodd" d="M23.6976 19.0441L18.6046 16.159C18.2306 15.947 17.7694 15.947 17.3952 16.159L12.3024 19.0441C12.1152 19.1501 12 19.3461 12 19.558V25.4068C12 25.7344 12.2707 26 12.6046 26H15.2436C15.5775 26 15.8482 25.7344 15.8482 25.4068V21.7468C15.8482 21.419 16.1189 21.1534 16.453 21.1534H19.547C19.8811 21.1534 20.1518 21.419 20.1518 21.7468V25.4068C20.1518 25.7344 20.4225 26 20.7564 26H23.3954C23.7293 26 24 25.7344 24 25.4068V19.558C24 19.3461 23.8848 19.1501 23.6976 19.0441Z" fill="#2A42E8"/>
<mask id="mask0_0_1143" style="mask-type:alpha" maskUnits="userSpaceOnUse" x="0" y="0" width="36" height="41">
<path fill-rule="evenodd" clip-rule="evenodd" d="M0 0.117432H35.952V41H0V0.117432Z" fill="white"/>
</mask>
<g mask="url(#mask0_0_1143)">
<path fill-rule="evenodd" clip-rule="evenodd" d="M28.9889 19.1296V22.9068V25.3708C28.9889 25.8001 28.7618 26.1967 28.3934 26.4113L23.9159 29.0194L18.5585 32.14C18.1898 32.3546 17.7359 32.3546 17.3674 32.14L12.0098 29.0194V29.0042L7.55864 26.4113C7.19016 26.1967 6.96312 25.8001 6.96312 25.3708V22.9068V19.1296V16.6658C6.96312 16.2366 7.19016 15.8398 7.55864 15.6253L12.3207 12.8515C12.6892 12.6368 13.1431 12.6368 13.5116 12.8515L17.3806 15.1049C17.7489 15.3196 18.203 15.3196 18.5714 15.1049L22.4402 12.8515C22.8089 12.6368 23.2628 12.6368 23.6313 12.8515L28.3934 15.6253C28.7618 15.8398 28.9889 16.2366 28.9889 16.6658V19.1296ZM34.3521 9.15632L19.5759 0.549869C18.5858 -0.026714 17.366 -0.026714 16.3759 0.549869L1.59992 9.15632C0.609844 9.73306 -7.62939e-05 10.7989 -7.62939e-05 11.9522V29.1651C-7.62939e-05 30.3185 0.609844 31.3843 1.59992 31.961L16.3759 40.5675C17.366 41.1442 18.5858 41.1442 19.5759 40.5675L34.3521 31.961C35.342 31.3843 35.9521 30.3185 35.9521 29.1651V11.9522C35.9521 10.7989 35.342 9.73306 34.3521 9.15632Z" fill="#2A42E8"/>
</g>
</svg>
