<svg width="14" height="15" viewBox="0 0 14 15" fill="none" xmlns="http://www.w3.org/2000/svg">
<mask id="mask0_0_958" style="mask-type:alpha" maskUnits="userSpaceOnUse" x="0" y="0" width="14" height="6">
<path fill-rule="evenodd" clip-rule="evenodd" d="M0 0.318237H13.9675V5.8083H0V0.318237Z" fill="white"/>
</mask>
<g mask="url(#mask0_0_958)">
<path fill-rule="evenodd" clip-rule="evenodd" d="M13.609 4.36175L7.77351 0.54961C7.29274 0.238428 6.67355 0.24161 6.19533 0.556292L0.353827 4.36493C-0.00858253 4.60388 -0.109128 5.09166 0.129508 5.45438C0.368463 5.81711 0.855917 5.91765 1.21928 5.67838L6.98983 1.91556L12.7537 5.68156C12.8864 5.76716 13.034 5.80756 13.1804 5.80756C13.4391 5.80756 13.6911 5.68125 13.8412 5.44897C14.0776 5.08434 13.9733 4.59816 13.609 4.36175Z" fill="black"/>
</g>
<path fill-rule="evenodd" clip-rule="evenodd" d="M10.5011 12.1267C9.96435 12.1267 9.52908 11.6917 9.52908 11.154C9.52908 10.6169 9.96435 10.1816 10.5011 10.1816C11.0382 10.1816 11.4738 10.6166 11.4738 11.154C11.4738 11.6917 11.0382 12.1267 10.5011 12.1267ZM3.70922 8.62602L3.82153 7.45574C3.90331 6.60493 4.60935 5.96411 5.46431 5.96411H5.63962V6.33192C5.63962 6.65106 5.89322 6.90529 6.21203 6.90529H7.75712C8.07594 6.90529 8.33399 6.65106 8.33399 6.33192V5.96442H8.50485C9.35981 5.96442 10.0659 6.60492 10.1473 7.45606L10.2599 8.62633L3.70922 8.62602ZM3.46676 12.1267C2.92999 12.1267 2.49472 11.6917 2.49472 11.154C2.49472 10.6169 2.92999 10.1816 3.46676 10.1816C4.00385 10.1816 4.43944 10.6166 4.43944 11.154C4.43944 11.6917 4.00385 12.1267 3.46676 12.1267ZM12.1331 9.10488C12.085 8.82965 11.8458 8.62602 11.5667 8.62602H11.246L11.1241 7.35742C10.994 6.0007 9.86794 4.97424 8.50485 4.97424H5.46431C4.1009 4.97424 2.97517 6.00102 2.84472 7.35742L2.72317 8.62602H2.40212C2.12276 8.62602 1.88381 8.82965 1.83512 9.10488L1.35785 11.8107C1.29867 12.1461 1.39349 12.4913 1.6124 12.7516C1.82303 13.0023 2.13326 13.1518 2.45781 13.163V13.6122C2.45781 14.2483 2.96753 14.7606 3.60422 14.7606H3.96631C4.60235 14.7606 5.11972 14.2483 5.11972 13.6122V13.17H8.85262V13.6113C8.85262 14.2477 9.36585 14.7606 10.0019 14.7606H10.3643C11.0004 14.7606 11.5142 14.2477 11.5142 13.6113V13.163C11.8388 13.1518 12.1471 13.0036 12.3571 12.7532C12.576 12.4919 12.6695 12.1486 12.611 11.8129L12.1331 9.10488Z" fill="black"/>
</svg>
